# xmcd CD database file
#
# Track frame offsets:
#	150
#	22525
#	50589
#
# Disc length: 977 seconds
#
# Revision: 0
# Processed by: cddbd v1.5.1PL0 Copyright (c) Steve Scherf et al.
# Submitted via: CDex 1.51
#
DISCID=1603cf03
DTITLE=Emerald Aisles - Stranger In The Darkness
DYEAR=1900
DGENRE=Hard Rock
TTITLE0=Stranger In The Darkness
TTITLE1=End Our Love
TTITLE2=Run For Your Life
EXTD=
EXTT0=
EXTT1=
EXTT2=
PLAYORDER=
